<svg width="203" height="48" viewBox="0 0 203 48" fill="none" xmlns="http://www.w3.org/2000/svg">
<g clip-path="url(#clip0_1_83)">
<mask id="mask0_1_83" style="mask-type:luminance" maskUnits="userSpaceOnUse" x="0" y="0" width="48" height="48">
<path d="M36 0H12C5.37258 0 0 5.37258 0 12V36C0 42.6274 5.37258 48 12 48H36C42.6274 48 48 42.6274 48 36V12C48 5.37258 42.6274 0 36 0Z" fill="white"/>
</mask>
<g mask="url(#mask0_1_83)">
<path d="M36 0H12C5.37258 0 0 5.37258 0 12V36C0 42.6274 5.37258 48 12 48H36C42.6274 48 48 42.6274 48 36V12C48 5.37258 42.6274 0 36 0Z" fill="#1F242F"/>
<path d="M0 0H48V48H0V0Z" fill="url(#paint0_linear_1_83)"/>
<path fill-rule="evenodd" clip-rule="evenodd" d="M19.746 30.905C20.3678 30.1588 21.2889 29.7274 22.2601 29.7274H35.4545C39.0695 29.7274 42 26.7969 42 23.182V19.9092C42 16.2943 39.0695 13.3638 35.4545 13.3638H32.8965C31.9252 13.3638 31.0041 13.7952 30.3823 14.5413L28.254 17.0953C27.6322 17.8414 26.7111 18.2729 25.7399 18.2729H12.5455C8.9305 18.2729 6 21.2034 6 24.8183V28.091C6 31.706 8.9305 34.6365 12.5455 34.6365H15.1035C16.0748 34.6365 16.9959 34.2051 17.6177 33.4589L19.746 30.905ZM37.0909 19.9092C37.0909 19.0055 36.3583 18.2729 35.4545 18.2729H30.442C29.4707 18.2729 28.5496 18.7043 27.9278 19.4504L25.7995 22.0044C25.1777 22.7505 24.2566 23.182 23.2853 23.182H12.5455C11.6417 23.182 10.9091 23.9146 10.9091 24.8183V28.091C10.9091 28.9948 11.6417 29.7274 12.5455 29.7274H17.558C18.5293 29.7274 19.4504 29.296 20.0722 28.5498L22.2005 25.9959C22.8223 25.2497 23.7434 24.8183 24.7147 24.8183H35.4545C36.3583 24.8183 37.0909 24.0857 37.0909 23.182V19.9092Z" fill="url(#paint1_linear_1_83)"/>
</g>
<path d="M36 1H12C5.92487 1 1 5.92487 1 12V36C1 42.0751 5.92487 47 12 47H36C42.0751 47 47 42.0751 47 36V12C47 5.92487 42.0751 1 36 1Z" stroke="url(#paint2_linear_1_83)" stroke-width="2"/>
<path d="M77.145 33.0001L74.148 22.4431L73.716 20.4991L73.257 22.4431L70.287 33.0001H65.427L60 14.6401H64.617L67.56 26.6821L68.046 28.8691L68.532 26.6821L71.934 14.6401H75.714L79.089 26.6821L79.575 28.8691L80.061 26.6821L83.004 14.6401H87.378L81.951 33.0001H77.145Z" fill="white"/>
<path d="M91.6634 23.2801H87.5324C87.9644 20.0131 90.4754 18.0151 94.2014 18.0151C98.3594 18.0151 100.519 20.4451 100.519 23.8201V29.3821C100.519 31.2721 100.681 32.2441 100.924 33.0001H96.6584C96.5234 32.5141 96.4424 31.8931 96.4154 31.1911C95.2814 32.7571 93.5534 33.4321 91.8254 33.4321C89.0714 33.4321 87.0194 32.0281 87.0194 29.2471C87.0194 27.2761 88.1534 25.7641 90.4484 24.9541C92.3384 24.3331 94.1474 24.1441 96.3884 24.1171V23.7931C96.3884 22.2001 95.6054 21.3631 94.0124 21.3631C92.6084 21.3631 91.8524 22.1461 91.6634 23.2801ZM91.1504 28.9771C91.1504 29.9491 91.8794 30.5701 93.0944 30.5701C94.9304 30.5701 96.3884 29.0851 96.3884 27.0871V26.5201C92.2034 26.6011 91.1504 27.6271 91.1504 28.9771Z" fill="white"/>
<path d="M102.92 33.0001V18.4741H107.051V20.4991C107.969 18.7711 109.373 18.0151 110.858 18.0151C111.452 18.0151 111.992 18.1771 112.289 18.4741V21.9571C111.803 21.8491 111.29 21.7951 110.642 21.7951C108.158 21.7951 107.051 23.1991 107.051 25.4941V33.0001H102.92Z" fill="white"/>
<path d="M117.533 38.9671H113.402V18.4741H117.533V19.9861C118.424 18.7171 119.666 18.0151 121.178 18.0151C124.931 18.0151 127.28 20.9581 127.28 25.7101C127.28 30.6511 124.877 33.4321 121.178 33.4321C119.639 33.4321 118.397 32.7841 117.533 31.5421V38.9671ZM120.314 21.3631C118.478 21.3631 117.533 22.9021 117.533 25.7101C117.533 28.5181 118.505 30.0841 120.314 30.0841C122.096 30.0841 123.041 28.5451 123.041 25.7101C123.041 22.9021 122.069 21.3631 120.314 21.3631Z" fill="white"/>
<path d="M132.51 22.4971C132.51 25.3591 141.501 22.8481 141.501 28.5991C141.501 31.4611 138.855 33.4321 135.075 33.4321C131.403 33.4321 128.757 31.8121 128.217 28.2211H132.348C132.537 29.5711 133.644 30.3001 135.183 30.3001C136.641 30.3001 137.37 29.7331 137.37 28.8421C137.37 26.0341 128.568 28.5451 128.568 22.7131C128.568 20.2831 130.539 18.0151 134.427 18.0151C137.91 18.0151 140.556 19.6081 140.961 23.2801H136.857C136.614 21.7951 135.75 21.1741 134.292 21.1741C133.212 21.1741 132.51 21.7141 132.51 22.4971Z" fill="white"/>
<path d="M147.17 38.9671H143.039V18.4741H147.17V19.9861C148.061 18.7171 149.303 18.0151 150.815 18.0151C154.568 18.0151 156.917 20.9581 156.917 25.7101C156.917 30.6511 154.514 33.4321 150.815 33.4321C149.276 33.4321 148.034 32.7841 147.17 31.5421V38.9671ZM149.951 21.3631C148.115 21.3631 147.17 22.9021 147.17 25.7101C147.17 28.5181 148.142 30.0841 149.951 30.0841C151.733 30.0841 152.678 28.5451 152.678 25.7101C152.678 22.9021 151.706 21.3631 149.951 21.3631Z" fill="white"/>
<path d="M172.246 28.2211C171.49 31.5691 168.79 33.4321 165.226 33.4321C160.717 33.4321 157.936 30.5161 157.936 25.7371C157.936 20.7961 160.744 18.0151 165.064 18.0151C169.411 18.0151 172.138 20.9041 172.138 25.6561V26.5741H162.148C162.364 28.8961 163.444 30.1381 165.226 30.1381C166.576 30.1381 167.494 29.5441 167.926 28.2211H172.246ZM165.064 21.3091C163.525 21.3091 162.553 22.3081 162.229 24.1981H167.872C167.548 22.3081 166.576 21.3091 165.064 21.3091Z" fill="white"/>
<path d="M187.553 28.2211C186.797 31.5691 184.097 33.4321 180.533 33.4321C176.024 33.4321 173.243 30.5161 173.243 25.7371C173.243 20.7961 176.051 18.0151 180.371 18.0151C184.718 18.0151 187.445 20.9041 187.445 25.6561V26.5741H177.455C177.671 28.8961 178.751 30.1381 180.533 30.1381C181.883 30.1381 182.801 29.5441 183.233 28.2211H187.553ZM180.371 21.3091C178.832 21.3091 177.86 22.3081 177.536 24.1981H183.179C182.855 22.3081 181.883 21.3091 180.371 21.3091Z" fill="white"/>
<path d="M194.624 33.4321C190.898 33.4321 188.549 30.5161 188.549 25.7371C188.549 20.7961 190.952 18.0151 194.624 18.0151C196.163 18.0151 197.405 18.6631 198.296 19.9051V13.5601H202.427V33.0001H198.296V31.4611C197.405 32.7301 196.136 33.4321 194.624 33.4321ZM195.515 30.0841C197.351 30.0841 198.296 28.5721 198.296 25.7371C198.296 22.9291 197.324 21.3631 195.515 21.3631C193.733 21.3631 192.788 22.9021 192.788 25.7371C192.788 28.5451 193.76 30.0841 195.515 30.0841Z" fill="white"/>
</g>
<defs>
<linearGradient id="paint0_linear_1_83" x1="24" y1="9.83477e-07" x2="26" y2="48" gradientUnits="userSpaceOnUse">
<stop stop-color="white" stop-opacity="0"/>
<stop offset="1" stop-color="white" stop-opacity="0.12"/>
</linearGradient>
<linearGradient id="paint1_linear_1_83" x1="24" y1="13.3638" x2="24" y2="34.6365" gradientUnits="userSpaceOnUse">
<stop stop-color="white" stop-opacity="0.8"/>
<stop offset="1" stop-color="white" stop-opacity="0.5"/>
</linearGradient>
<linearGradient id="paint2_linear_1_83" x1="24" y1="-5.05344e-08" x2="24" y2="48" gradientUnits="userSpaceOnUse">
<stop stop-color="white" stop-opacity="0.12"/>
<stop offset="1" stop-color="white" stop-opacity="0"/>
</linearGradient>
<clipPath id="clip0_1_83">
<rect width="203" height="48" fill="white"/>
</clipPath>
</defs>
</svg>
